# xmcd
#
# Track frame offsets: 
#        150
#        17317
#        34195
#        45480
#        65590
#        90222
#        106942
#        129512
#        149402
#        165360
#        178190
#        194880
#        212925
#
# Disc length: 3172 seconds
#
# Revision: 0
# Processed by: cddbd v1.4PL0 Copyright (c) Steve Scherf et al.
# Submitted via: ExactAudioCopy v0.90b4
#
DISCID=b10c620d
DTITLE=Big John Dickerson and Blue Chamber - Big John Dickerson and Blue C
DTITLE=hamber
DYEAR=1997
DGENRE=Blues
TTITLE0=Mother-In-Law Blues
TTITLE1=Red Beans
TTITLE2=Okie Dokie Stomp
TTITLE3=Homework
TTITLE4=Blues in D Natural
TTITLE5=Shakin' the Shack
TTITLE6=You've Been an Angel
TTITLE7=Last Night
TTITLE8=Something You Got
TTITLE9=Time I Go
TTITLE10=Sick and Tired
TTITLE11=One More Song
TTITLE12=Oh, Pretty Woman
EXTD=
EXTT0=
EXTT1=
EXTT2=
EXTT3=
EXTT4=
EXTT5=
EXTT6=
EXTT7=
EXTT8=
EXTT9=
EXTT10=
EXTT11=
EXTT12=
PLAYORDER=
